<svg width="97" height="97" viewBox="0 0 97 97" fill="none" xmlns="http://www.w3.org/2000/svg">
<path d="M37.9736 48.4331L42.8621 45.6108" stroke="black" stroke-width="0.5" stroke-miterlimit="10" stroke-linecap="round" stroke-linejoin="round"/>
<path d="M40.418 47.021L45.3569 55.5754" stroke="black" stroke-width="0.5" stroke-miterlimit="10" stroke-linecap="round" stroke-linejoin="round"/>
<path d="M62.5165 45.5881L57.7239 37.1423L61.0753 35.1921C62.2845 34.4885 63.798 34.8597 64.458 36.0228C65.1166 37.1834 64.6719 38.6957 63.4627 39.3993L60.1101 41.3503" stroke="black" stroke-width="0.5" stroke-miterlimit="10" stroke-linecap="round" stroke-linejoin="round"/>
<path d="M42.7078 10.628L18.4073 24.6579C18.0832 24.8447 17.8464 25.1525 17.7492 25.5137L10.485 52.62C10.3887 52.9815 10.4397 53.3664 10.627 53.6903L24.6576 77.992C24.8449 78.3161 25.1531 78.5525 25.5147 78.6494L52.621 85.9135C52.9825 86.0099 53.3674 85.9588 53.6912 85.7715L77.9905 71.7423C78.3146 71.5551 78.5511 71.2468 78.6479 70.8853L85.912 43.7789C86.009 43.4174 85.9583 43.0322 85.7712 42.708L71.7406 18.4063C71.5534 18.0822 71.2451 17.8457 70.8836 17.7489L43.778 10.486C43.4165 10.389 43.0312 10.4397 42.707 10.6268L42.7078 10.628Z" fill="#ADADAD" fill-opacity="0.15"/>
<path d="M43.4566 16.3066L22.9514 28.1453C22.6273 28.3321 22.3906 28.6399 22.2933 29.0011L16.1653 51.871C16.0684 52.2325 16.119 52.6177 16.3061 52.9419L28.1448 73.4471C28.3321 73.7712 28.6403 74.0077 29.0019 74.1045L51.8717 80.2325C52.2332 80.3294 52.6185 80.2788 52.9427 80.0917L73.4479 68.253C73.772 68.0658 74.0085 67.7575 74.1053 67.3959L80.2333 44.5261C80.3302 44.1646 80.2795 43.7793 80.0925 43.4552L68.2538 22.9499C68.0665 22.6258 67.7583 22.3893 67.3967 22.2925L44.5269 16.1646C44.1653 16.0676 43.7801 16.1183 43.4559 16.3054L43.4566 16.3066Z" stroke="#E7E7E7" stroke-miterlimit="10" stroke-linecap="round" stroke-linejoin="round"/>
<path d="M54.7485 50.1541C53.9381 50.622 52.975 50.7488 52.0711 50.5066C51.1671 50.2644 50.3965 49.6731 49.9285 48.8626L48.5172 46.418C48.0493 45.6076 47.9225 44.6445 48.1647 43.7406C48.4069 42.8367 48.9982 42.066 49.8087 41.5981C50.21 41.3664 50.6529 41.216 51.1123 41.1555C51.5717 41.095 52.0386 41.1256 52.4861 41.2456C52.9337 41.3655 53.3533 41.5724 53.7209 41.8545C54.0885 42.1366 54.397 42.4883 54.6287 42.8896L56.04 45.3342C56.2717 45.7355 56.4221 46.1784 56.4826 46.6378C56.5431 47.0972 56.5125 47.5641 56.3925 48.0116C56.2726 48.4592 56.0657 48.8788 55.7836 49.2464C55.5015 49.614 55.1498 49.9225 54.7485 50.1541Z" stroke="#E7E7E7" stroke-miterlimit="10" stroke-linecap="round" stroke-linejoin="round"/>
<path d="M34.6869 52.6019C33.8739 51.7724 32.3675 51.6643 31.0694 52.4137C29.5856 53.2704 28.9354 54.9219 29.6178 56.1039C30.2995 57.2846 32.0555 57.5485 33.5393 56.6918L33.4886 56.7309C34.9724 55.8741 36.7285 56.138 37.4102 57.3188C38.0919 58.4995 37.4424 60.1522 35.9585 61.0089C34.6604 61.7583 33.1541 61.6502 32.341 60.8207" stroke="#E7E7E7" stroke-miterlimit="10" stroke-linecap="round" stroke-linejoin="round"/>
<path d="M37.9736 48.4331L42.8628 45.6103" stroke="#E7E7E7" stroke-miterlimit="10" stroke-linecap="round" stroke-linejoin="round"/>
<path d="M40.418 47.0225L45.3578 55.5785" stroke="#E7E7E7" stroke-miterlimit="10" stroke-linecap="round" stroke-linejoin="round"/>
<path d="M62.6579 45.5891L57.718 37.033L60.9803 35.1495C62.1574 34.4699 63.6612 34.8729 64.3415 36.0511C65.0204 37.227 64.6182 38.732 63.4411 39.4116L60.1775 41.2958" stroke="#E7E7E7" stroke-miterlimit="10" stroke-linecap="round" stroke-linejoin="round"/>
</svg>
