<svg width="116" height="116" viewBox="0 0 116 116" fill="none" xmlns="http://www.w3.org/2000/svg">
<path d="M93.8177 29.6618L64.5861 12.785C64.1966 12.5596 63.7335 12.4982 63.2987 12.6141L30.6913 21.35C30.2568 21.467 29.8865 21.7518 29.6618 22.1416L12.7841 51.3747C12.5591 51.7646 12.4982 52.228 12.6148 52.6629L21.3506 85.2703C21.4677 85.7048 21.7524 86.0751 22.1423 86.2998L51.3724 103.176C51.7623 103.401 52.2257 103.462 52.6606 103.345L85.268 94.6093C85.7029 94.4928 86.0738 94.2084 86.299 93.8185L103.177 64.5855C103.402 64.1955 103.463 63.7321 103.346 63.2972L94.6093 30.6913C94.4928 30.2564 94.2084 29.8855 93.8185 29.6603L93.8177 29.6618Z" fill="#ADADAD" fill-opacity="0.09"/>
<path d="M88.3494 33.8573L63.6832 19.6162C63.2937 19.3909 62.8306 19.3295 62.3958 19.4454L34.8852 26.8168C34.4503 26.9333 34.0794 27.2178 33.8542 27.6076L19.6132 52.2738C19.3882 52.6638 19.3272 53.1272 19.4438 53.5621L26.8153 81.0727C26.9318 81.5076 27.2162 81.8784 27.6061 82.1036L52.2723 96.3447C52.6623 96.5697 53.1256 96.6306 53.5605 96.514L81.0711 89.1426C81.506 89.0261 81.8769 88.7417 82.1021 88.3518L96.3431 63.6856C96.5682 63.2956 96.6291 62.8322 96.5125 62.3974L89.141 34.8868C89.0246 34.4518 88.7401 34.081 88.3502 33.8558L88.3494 33.8573Z" stroke="white" stroke-width="2" stroke-miterlimit="10" stroke-linecap="round" stroke-linejoin="round"/>
<path d="M59.8879 65.9812C58.913 65.4183 58.2016 64.4912 57.9103 63.4039C57.6189 62.3166 57.7714 61.158 58.3343 60.1831L60.0321 57.2425C60.5949 56.2676 61.522 55.5562 62.6093 55.2649C63.6967 54.9735 64.8552 55.126 65.8301 55.6889C66.3128 55.9676 66.7359 56.3386 67.0752 56.7808C67.4146 57.223 67.6635 57.7277 67.8077 58.2661C67.952 58.8045 67.9888 59.3661 67.916 59.9187C67.8433 60.4713 67.6624 61.0042 67.3837 61.4869L65.6859 64.4276C65.4072 64.9103 65.0362 65.3334 64.594 65.6727C64.1518 66.012 63.647 66.2609 63.1086 66.4052C62.5702 66.5495 62.0087 66.5863 61.4561 66.5135C60.9035 66.4408 60.3706 66.2599 59.8879 65.9812Z" stroke="white" stroke-width="2" stroke-miterlimit="10" stroke-linecap="round" stroke-linejoin="round"/>
<path d="M45.2669 46.551C45.6421 45.2052 44.8487 43.5709 43.2872 42.6693C41.5022 41.6388 39.3907 41.9547 38.5699 43.3765C37.7498 44.7969 38.5311 46.7849 40.3161 47.8155L40.2448 47.7861C42.0298 48.8167 42.8111 50.8047 41.991 52.225C41.171 53.6454 39.0587 53.9628 37.2737 52.9322C35.7122 52.0307 34.9188 50.3964 35.294 49.0505" stroke="white" stroke-width="2" stroke-miterlimit="10" stroke-linecap="round" stroke-linejoin="round"/>
<path d="M51.5869 47.4665L57.4682 50.8621" stroke="white" stroke-width="2" stroke-miterlimit="10" stroke-linecap="round" stroke-linejoin="round"/>
<path d="M54.5276 49.1636L48.5853 59.4559" stroke="white" stroke-width="2" stroke-miterlimit="10" stroke-linecap="round" stroke-linejoin="round"/>
<path d="M69.3961 71.4741L75.3384 61.1818L79.2627 63.4475C80.6786 64.265 81.1633 66.074 80.345 67.4914C79.5284 68.9058 77.7185 69.392 76.3026 68.5745L72.3768 66.308" stroke="white" stroke-width="2" stroke-miterlimit="10" stroke-linecap="round" stroke-linejoin="round"/>
</svg>
