<svg width="73" height="73" viewBox="0 0 73 73" fill="none" xmlns="http://www.w3.org/2000/svg">
<path d="M58.5739 18.5191L40.3234 7.98218C40.0802 7.84152 39.7911 7.80316 39.5197 7.87553L19.1615 13.3297C18.8902 13.4028 18.659 13.5805 18.5187 13.824L7.98127 32.0754C7.84077 32.3189 7.80273 32.6082 7.87553 32.8797L13.3297 53.2378C13.4028 53.5091 13.5805 53.7403 13.824 53.8806L32.0735 64.417C32.317 64.5575 32.6063 64.5955 32.8778 64.5227L53.236 59.0686C53.5075 58.9959 53.7391 58.8183 53.8797 58.5748L64.4171 40.3234C64.5576 40.08 64.5957 39.7906 64.5229 39.5191L59.0682 19.1619C58.9955 18.8903 58.8179 18.6588 58.5745 18.5182L58.5739 18.5191Z" fill="#ADADAD" fill-opacity="0.09"/>
<path d="M55.1611 21.1384L39.761 12.2471C39.5178 12.1065 39.2287 12.0681 38.9572 12.1405L21.7812 16.7428C21.5096 16.8155 21.2781 16.9931 21.1375 17.2365L12.2462 32.6366C12.1057 32.8801 12.0677 33.1694 12.1405 33.441L16.7428 50.617C16.8155 50.8885 16.9931 51.12 17.2365 51.2607L32.6366 60.1519C32.8801 60.2924 33.1694 60.3305 33.441 60.2577L50.617 55.6554C50.8885 55.5827 51.1201 55.4051 51.2607 55.1617L60.1519 39.7615C60.2924 39.518 60.3305 39.2287 60.2577 38.9572L55.6554 21.7812C55.5827 21.5096 55.4051 21.2781 55.1616 21.1375L55.1611 21.1384Z" stroke="#E8E8E8" stroke-miterlimit="10" stroke-linecap="round" stroke-linejoin="round"/>
<path d="M37.3878 41.1951C36.7792 40.8436 36.335 40.2648 36.1531 39.586C35.9712 38.9071 36.0664 38.1838 36.4179 37.5751L37.4779 35.7391C37.8293 35.1305 38.4081 34.6863 39.087 34.5044C39.7658 34.3225 40.4892 34.4177 41.0978 34.7692C41.3992 34.9432 41.6634 35.1748 41.8752 35.4509C42.0871 35.727 42.2425 36.0421 42.3325 36.3782C42.4226 36.7144 42.4456 37.065 42.4002 37.41C42.3547 37.755 42.2418 38.0877 42.0678 38.3891L41.0078 40.2251C40.8338 40.5265 40.6021 40.7906 40.326 41.0025C40.05 41.2143 39.7348 41.3697 39.3987 41.4598C39.0626 41.5499 38.712 41.5728 38.3669 41.5274C38.0219 41.482 37.6892 41.3691 37.3878 41.1951Z" stroke="#E8E8E8" stroke-miterlimit="10" stroke-linecap="round" stroke-linejoin="round"/>
<path d="M28.2612 29.0636C28.4954 28.2233 28.0001 27.203 27.0252 26.6401C25.9107 25.9967 24.5925 26.1939 24.0799 27.0816C23.568 27.9684 24.0557 29.2096 25.1702 29.8531L25.1257 29.8347C26.2401 30.4781 26.7279 31.7194 26.2159 32.6061C25.7039 33.4929 24.3851 33.6911 23.2707 33.0477C22.2958 32.4848 21.8005 31.4644 22.0347 30.6241" stroke="#E8E8E8" stroke-miterlimit="10" stroke-linecap="round" stroke-linejoin="round"/>
<path d="M32.2061 29.6355L35.878 31.7555" stroke="#E8E8E8" stroke-miterlimit="10" stroke-linecap="round" stroke-linejoin="round"/>
<path d="M34.0417 30.6953L30.3317 37.1212" stroke="#E8E8E8" stroke-miterlimit="10" stroke-linecap="round" stroke-linejoin="round"/>
<path d="M43.3272 44.6242L47.0372 38.1983L49.4873 39.6129C50.3713 40.1232 50.6739 41.2527 50.163 42.1376C49.6532 43.0207 48.5232 43.3243 47.6392 42.8139L45.1881 41.3988" stroke="#E8E8E8" stroke-miterlimit="10" stroke-linecap="round" stroke-linejoin="round"/>
</svg>
