<svg width="36" height="36" viewBox="0 0 36 36" fill="none" xmlns="http://www.w3.org/2000/svg">
<path d="M18 35.5C27.665 35.5 35.5 27.665 35.5 18C35.5 8.33502 27.665 0.5 18 0.5C8.33502 0.5 0.5 8.33502 0.5 18C0.5 27.665 8.33502 35.5 18 35.5Z" fill="#FFD300" stroke="#424548"/>
<path d="M26.046 27.9476C26.3921 27.7611 26.6568 27.5251 26.8345 27.2378C27.0126 26.95 27.1 26.6164 27.1 26.2405V18.5408C27.1 18.1559 27.0128 17.8174 26.8345 17.5293C26.6566 17.2417 26.3916 17.0102 26.0451 16.8331C25.3848 16.4641 24.6134 16.2815 23.734 16.2815C22.854 16.2815 22.0704 16.4644 21.3859 16.8331C21.0508 17.0107 20.7949 17.2428 20.6234 17.5307C20.4518 17.8186 20.368 18.1566 20.368 18.5408V26.2405C20.368 26.6157 20.452 26.9488 20.6234 27.2363C20.7946 27.5238 21.0499 27.7602 21.3842 27.9472L21.3856 27.948C22.0701 28.3168 22.8538 28.4998 23.734 28.4998C24.6138 28.4998 25.3855 28.3169 26.046 27.9476ZM25.2149 17.7761L25.2177 17.7779C25.3928 17.8833 25.5651 17.9881 25.6947 18.1109C25.8227 18.2322 25.8979 18.3607 25.8979 18.5124V26.2689C25.8979 26.4227 25.8205 26.5674 25.6908 26.7045C25.5613 26.8413 25.3884 26.9612 25.218 27.0638C25.0726 27.1492 24.8454 27.2176 24.5773 27.2642C24.3111 27.3105 24.0135 27.3338 23.734 27.3338C23.4546 27.3338 23.1517 27.3105 22.8771 27.2641C22.6015 27.2176 22.3623 27.1492 22.2036 27.0629C22.0351 26.9614 21.8725 26.8424 21.7527 26.7069C21.6329 26.5714 21.5615 26.4259 21.5615 26.2689V18.5124C21.5615 18.3573 21.6311 18.2282 21.749 18.1086C21.8689 17.987 22.0318 17.8823 22.2054 17.7779C22.5323 17.5813 23.1779 17.4191 23.734 17.4191C24.0096 17.4191 24.3049 17.4591 24.5704 17.5246C24.8373 17.5905 25.067 17.6804 25.2149 17.7761ZM9.91614 19.9918L9.91754 19.9926C10.6021 20.3614 11.3858 20.5444 12.266 20.5444C13.1457 20.5444 13.9176 20.3615 14.578 19.9922C14.9241 19.8056 15.1887 19.5697 15.3665 19.2824C15.5445 18.9946 15.632 18.661 15.632 18.2851V10.5854C15.632 10.2095 15.5445 9.87584 15.3665 9.58808C15.1887 9.3008 14.9241 9.06482 14.578 8.87825C13.9175 8.50893 13.1457 8.32608 12.266 8.32608C11.3858 8.32608 10.6021 8.50909 9.91754 8.87787L9.91615 8.87864C9.58185 9.06566 9.3266 9.3021 9.15535 9.58951C8.98403 9.87705 8.90002 10.2102 8.90002 10.5854V18.2851C8.90002 18.6603 8.98403 18.9934 9.15535 19.281C9.3266 19.5684 9.58185 19.8048 9.91614 19.9918ZM13.7918 9.8146L13.7946 9.81636C13.9677 9.92048 14.1307 10.0267 14.2506 10.1497C14.3687 10.2709 14.4385 10.4017 14.4385 10.557V18.3419C14.4385 18.48 14.3545 18.6162 14.2092 18.7518C14.0656 18.8859 13.8785 19.0043 13.7051 19.1086L13.7023 19.1103C13.5567 19.2047 13.3403 19.2796 13.0846 19.3306C12.8305 19.3812 12.5448 19.4068 12.266 19.4068C11.7043 19.4068 11.1646 19.3033 10.8409 19.1086C10.6688 19.0051 10.4897 18.8869 10.3541 18.7536C10.2177 18.6194 10.1385 18.4827 10.1385 18.3419V10.557C10.1385 10.4017 10.2082 10.2709 10.3263 10.1497C10.4462 10.0267 10.6092 9.92048 10.7823 9.81636C11.1096 9.61949 11.7105 9.46368 12.266 9.46368C12.542 9.46368 12.8491 9.50226 13.1263 9.56646C13.4054 9.6311 13.6452 9.71962 13.7918 9.8146ZM12.7856 28.8691H12.8441L12.8728 28.8181L24.5264 8.04883L24.6099 7.8999H24.4392H23.2144H23.1559L23.1272 7.95097L11.4736 28.7202L11.39 28.8691H11.5608H12.7856Z" fill="#424548" stroke="#424548" stroke-width="0.2"/>
</svg>
